<mxfile host="app.diagrams.net" modified="2020-10-05T07:10:24.862Z" agent="5.0 (Macintosh)" etag="9vVqzID8TKwgtto2Vv5U" version="13.7.7" type="github">
  <diagram id="drRLbGpY3Iv6yprvGkc4" name="Page-1">
    <mxGraphModel dx="1376" dy="928" grid="1" gridSize="10" guides="1" tooltips="1" connect="1" arrows="1" fold="1" page="1" pageScale="1" pageWidth="850" pageHeight="1100" math="0" shadow="0">
      <root>
        <mxCell id="0" />
        <mxCell id="1" parent="0" />
        <mxCell id="ktZuwctLiz_L_K2FxrCW-1" value="" style="rounded=1;whiteSpace=wrap;html=1;" vertex="1" parent="1">
          <mxGeometry x="360" y="450" width="120" height="60" as="geometry" />
        </mxCell>
        <mxCell id="ktZuwctLiz_L_K2FxrCW-2" value="" style="ellipse;whiteSpace=wrap;html=1;aspect=fixed;" vertex="1" parent="1">
          <mxGeometry x="180" y="280" width="80" height="80" as="geometry" />
        </mxCell>
        <mxCell id="ktZuwctLiz_L_K2FxrCW-3" value="" style="whiteSpace=wrap;html=1;aspect=fixed;" vertex="1" parent="1">
          <mxGeometry x="490" y="240" width="80" height="80" as="geometry" />
        </mxCell>
      </root>
    </mxGraphModel>
  </diagram>
</mxfile>
